<mxfile host="app.diagrams.net" modified="2024-02-25T05:19:54.562Z" agent="Mozilla/5.0 (Windows NT 10.0; Win64; x64) AppleWebKit/537.36 (KHTML, like Gecko) Chrome/121.0.0.0 Safari/537.36" etag="hMqePhanlcC9-x5QFxz4" version="23.1.2" type="github">
  <diagram name="第 1 页" id="IFD2oY4gpwefcaNgG6oZ">
    <mxGraphModel dx="954" dy="600" grid="1" gridSize="10" guides="1" tooltips="1" connect="1" arrows="1" fold="1" page="1" pageScale="1" pageWidth="1169" pageHeight="827" math="0" shadow="0">
      <root>
        <mxCell id="0" />
        <mxCell id="1" parent="0" />
        <mxCell id="5PXPwkXPOPTIs940TesT-20" value="Ping-pong 0" style="rounded=1;whiteSpace=wrap;html=1;fontFamily=Times New Roman;fontStyle=2" vertex="1" parent="1">
          <mxGeometry x="480" y="210" width="140" height="20" as="geometry" />
        </mxCell>
        <mxCell id="5PXPwkXPOPTIs940TesT-19" value="Ping-pong 1" style="rounded=1;whiteSpace=wrap;html=1;fontFamily=Times New Roman;fontStyle=2" vertex="1" parent="1">
          <mxGeometry x="120" y="260" width="140" height="20" as="geometry" />
        </mxCell>
        <mxCell id="5PXPwkXPOPTIs940TesT-1" value="" style="endArrow=none;html=1;rounded=0;" edge="1" parent="1">
          <mxGeometry width="50" height="50" relative="1" as="geometry">
            <mxPoint x="200" y="200" as="sourcePoint" />
            <mxPoint x="560" y="200" as="targetPoint" />
          </mxGeometry>
        </mxCell>
        <mxCell id="5PXPwkXPOPTIs940TesT-3" value="" style="endArrow=none;dashed=1;html=1;dashPattern=1 3;strokeWidth=2;rounded=0;" edge="1" parent="1">
          <mxGeometry width="50" height="50" relative="1" as="geometry">
            <mxPoint x="320" y="280" as="sourcePoint" />
            <mxPoint x="320" y="170" as="targetPoint" />
          </mxGeometry>
        </mxCell>
        <mxCell id="5PXPwkXPOPTIs940TesT-4" value="" style="endArrow=none;dashed=1;html=1;dashPattern=1 3;strokeWidth=2;rounded=0;" edge="1" parent="1">
          <mxGeometry width="50" height="50" relative="1" as="geometry">
            <mxPoint x="440" y="280" as="sourcePoint" />
            <mxPoint x="440" y="170" as="targetPoint" />
          </mxGeometry>
        </mxCell>
        <mxCell id="5PXPwkXPOPTIs940TesT-6" value="Frame i" style="text;html=1;strokeColor=none;fillColor=none;align=center;verticalAlign=middle;whiteSpace=wrap;rounded=0;fontFamily=Times New Roman;fontStyle=1;fontSize=14;spacing=2;" vertex="1" parent="1">
          <mxGeometry x="200" y="170" width="120" height="30" as="geometry" />
        </mxCell>
        <mxCell id="5PXPwkXPOPTIs940TesT-7" value="Frame i + 1" style="text;html=1;strokeColor=none;fillColor=none;align=center;verticalAlign=middle;whiteSpace=wrap;rounded=0;fontFamily=Times New Roman;fontStyle=1;fontSize=14;" vertex="1" parent="1">
          <mxGeometry x="320" y="170" width="120" height="30" as="geometry" />
        </mxCell>
        <mxCell id="5PXPwkXPOPTIs940TesT-8" value="Frame i + 2" style="text;html=1;strokeColor=none;fillColor=none;align=center;verticalAlign=middle;whiteSpace=wrap;rounded=0;fontFamily=Times New Roman;fontStyle=1;fontSize=14;" vertex="1" parent="1">
          <mxGeometry x="440" y="170" width="120" height="30" as="geometry" />
        </mxCell>
        <mxCell id="5PXPwkXPOPTIs940TesT-9" value="Ping-pong 0" style="rounded=1;whiteSpace=wrap;html=1;fontFamily=Times New Roman;fontStyle=2" vertex="1" parent="1">
          <mxGeometry x="240" y="210" width="140" height="20" as="geometry" />
        </mxCell>
        <mxCell id="5PXPwkXPOPTIs940TesT-10" value="Ping-pong 1" style="rounded=1;whiteSpace=wrap;html=1;fontFamily=Times New Roman;fontStyle=2" vertex="1" parent="1">
          <mxGeometry x="360" y="260" width="140" height="20" as="geometry" />
        </mxCell>
        <mxCell id="5PXPwkXPOPTIs940TesT-16" value="" style="endArrow=classic;startArrow=classic;html=1;rounded=0;entryX=0.929;entryY=1;entryDx=0;entryDy=0;entryPerimeter=0;" edge="1" parent="1">
          <mxGeometry width="50" height="50" relative="1" as="geometry">
            <mxPoint x="370" y="260" as="sourcePoint" />
            <mxPoint x="369.99999999999994" y="230" as="targetPoint" />
          </mxGeometry>
        </mxCell>
        <mxCell id="5PXPwkXPOPTIs940TesT-17" value="Switch" style="edgeLabel;html=1;align=center;verticalAlign=middle;resizable=0;points=[];fontSize=10;fontFamily=Times New Roman;" vertex="1" connectable="0" parent="5PXPwkXPOPTIs940TesT-16">
          <mxGeometry x="0.0713" relative="1" as="geometry">
            <mxPoint as="offset" />
          </mxGeometry>
        </mxCell>
        <mxCell id="5PXPwkXPOPTIs940TesT-22" value="" style="rounded=0;whiteSpace=wrap;html=1;strokeColor=none;" vertex="1" parent="1">
          <mxGeometry x="560" y="200" width="100" height="60" as="geometry" />
        </mxCell>
        <mxCell id="5PXPwkXPOPTIs940TesT-21" value="" style="rounded=0;whiteSpace=wrap;html=1;strokeColor=none;" vertex="1" parent="1">
          <mxGeometry x="100" y="240" width="100" height="60" as="geometry" />
        </mxCell>
        <mxCell id="5PXPwkXPOPTIs940TesT-2" value="" style="endArrow=none;dashed=1;html=1;dashPattern=1 3;strokeWidth=2;rounded=0;" edge="1" parent="1">
          <mxGeometry width="50" height="50" relative="1" as="geometry">
            <mxPoint x="201" y="280" as="sourcePoint" />
            <mxPoint x="201" y="170" as="targetPoint" />
          </mxGeometry>
        </mxCell>
        <mxCell id="5PXPwkXPOPTIs940TesT-5" value="" style="endArrow=none;dashed=1;html=1;dashPattern=1 3;strokeWidth=2;rounded=0;" edge="1" parent="1">
          <mxGeometry width="50" height="50" relative="1" as="geometry">
            <mxPoint x="560" y="280" as="sourcePoint" />
            <mxPoint x="560" y="170" as="targetPoint" />
          </mxGeometry>
        </mxCell>
        <mxCell id="5PXPwkXPOPTIs940TesT-23" value="" style="endArrow=classic;startArrow=classic;html=1;rounded=0;entryX=0.929;entryY=1;entryDx=0;entryDy=0;entryPerimeter=0;" edge="1" parent="1">
          <mxGeometry width="50" height="50" relative="1" as="geometry">
            <mxPoint x="490" y="260" as="sourcePoint" />
            <mxPoint x="489.99999999999994" y="230" as="targetPoint" />
          </mxGeometry>
        </mxCell>
        <mxCell id="5PXPwkXPOPTIs940TesT-24" value="Switch" style="edgeLabel;html=1;align=center;verticalAlign=middle;resizable=0;points=[];fontSize=10;fontFamily=Times New Roman;" vertex="1" connectable="0" parent="5PXPwkXPOPTIs940TesT-23">
          <mxGeometry x="0.0713" relative="1" as="geometry">
            <mxPoint as="offset" />
          </mxGeometry>
        </mxCell>
        <mxCell id="5PXPwkXPOPTIs940TesT-25" value="" style="endArrow=classic;startArrow=classic;html=1;rounded=0;entryX=0.929;entryY=1;entryDx=0;entryDy=0;entryPerimeter=0;" edge="1" parent="1">
          <mxGeometry width="50" height="50" relative="1" as="geometry">
            <mxPoint x="250" y="260" as="sourcePoint" />
            <mxPoint x="249.99999999999994" y="230" as="targetPoint" />
          </mxGeometry>
        </mxCell>
        <mxCell id="5PXPwkXPOPTIs940TesT-26" value="Switch" style="edgeLabel;html=1;align=center;verticalAlign=middle;resizable=0;points=[];fontSize=10;fontFamily=Times New Roman;" vertex="1" connectable="0" parent="5PXPwkXPOPTIs940TesT-25">
          <mxGeometry x="0.0713" relative="1" as="geometry">
            <mxPoint as="offset" />
          </mxGeometry>
        </mxCell>
      </root>
    </mxGraphModel>
  </diagram>
</mxfile>
